<svg width="100" height="100" viewBox="0 0 100 100" fill="none" xmlns="http://www.w3.org/2000/svg">
<path d="M50 87.5C43.2013 87.5 36.5552 85.484 30.9023 81.7068C25.2493 77.9296 20.8434 72.561 18.2416 66.2798C15.6399 59.9986 14.9591 53.0869 16.2855 46.4188C17.6119 39.7507 20.8858 33.6257 25.6932 28.8182C30.5006 24.0108 36.6257 20.7369 43.2938 19.4105C49.9619 18.0842 56.8735 18.7649 63.1547 21.3667C69.436 23.9684 74.8046 28.3743 78.5818 34.0273C82.3589 39.6802 84.375 46.3263 84.375 53.125C84.375 62.2418 80.7534 70.9853 74.3068 77.4318C67.8602 83.8784 59.1168 87.5 50 87.5ZM50 25C44.4374 25 38.9997 26.6495 34.3746 29.7399C29.7495 32.8303 26.1446 37.2229 24.0159 42.362C21.8872 47.5012 21.3302 53.1562 22.4154 58.6119C23.5006 64.0676 26.1793 69.079 30.1126 73.0124C34.046 76.9457 39.0574 79.6244 44.5131 80.7096C49.9688 81.7948 55.6238 81.2378 60.763 79.1091C65.9021 76.9804 70.2947 73.3756 73.3851 68.7504C76.4755 64.1253 78.125 58.6876 78.125 53.125C78.125 45.6658 75.1618 38.5121 69.8874 33.2376C64.6129 27.9632 57.4592 25 50 25Z" fill="#8BD5FF"/>
<path d="M58.0938 65.625L46.875 54.4062V34.375H53.125V51.8125L62.5 61.2188L58.0938 65.625Z" fill="#8BD5FF"/>
<path d="M12.5022 23.7253L23.6937 12.5104L28.1177 16.9252L16.9262 28.1401L12.5022 23.7253Z" fill="#8BD5FF"/>
<path d="M71.8731 16.8994L76.2972 12.4846L87.4887 23.6996L83.0646 28.1144L71.8731 16.8994Z" fill="#8BD5FF"/>
</svg>
