<svg width="100" height="100" viewBox="0 0 100 100" fill="none" xmlns="http://www.w3.org/2000/svg">
<path d="M12.5 62.5V68.75H26.8313L6.25 89.3313L10.6688 93.75L31.25 73.1687V87.5H37.5V62.5H12.5Z" fill="#8BD5FF"/>
<path d="M93.75 12.5H71.875V18.75H83.0813L59.375 42.4563L45.9594 29.0406C45.3734 28.4548 44.5786 28.1257 43.75 28.1257C42.9214 28.1257 42.1266 28.4548 41.5406 29.0406L25 45.5813L29.4187 50L43.75 35.6687L57.1656 49.0844C57.7516 49.6702 58.5464 49.9993 59.375 49.9993C60.2036 49.9993 60.9984 49.6702 61.5844 49.0844L87.5 23.1687V34.375H93.75V12.5Z" fill="#8BD5FF"/>
<path d="M50 87.5H93.75V93.75H50V87.5Z" fill="#8BD5FF"/>
<path d="M6.25 6.25H12.5V50H6.25V6.25Z" fill="#8BD5FF"/>
</svg>
