<svg width="12" height="12" viewBox="0 0 12 12" fill="none" xmlns="http://www.w3.org/2000/svg">
<path fill-rule="evenodd" clip-rule="evenodd" d="M0.75 6C0.75 7.39239 1.30312 8.72774 2.28769 9.71231C3.27226 10.6969 4.60761 11.25 6 11.25C7.39239 11.25 8.72774 10.6969 9.71231 9.71231C10.6969 8.72774 11.25 7.39239 11.25 6C11.25 4.60761 10.6969 3.27226 9.71231 2.28769C8.72774 1.30312 7.39239 0.75 6 0.75C4.60761 0.75 3.27226 1.30312 2.28769 2.28769C1.30312 3.27226 0.75 4.60761 0.75 6ZM12 6C12 7.5913 11.3679 9.11742 10.2426 10.2426C9.11742 11.3679 7.5913 12 6 12C4.4087 12 2.88258 11.3679 1.75736 10.2426C0.632141 9.11742 0 7.5913 0 6C0 4.4087 0.632141 2.88258 1.75736 1.75736C2.88258 0.632141 4.4087 0 6 0C7.5913 0 9.11742 0.632141 10.2426 1.75736C11.3679 2.88258 12 4.4087 12 6ZM3.375 5.625C3.27554 5.625 3.18016 5.66451 3.10984 5.73484C3.03951 5.80516 3 5.90054 3 6C3 6.09946 3.03951 6.19484 3.10984 6.26517C3.18016 6.33549 3.27554 6.375 3.375 6.375H7.71975L6.1095 7.9845C6.07463 8.01937 6.04698 8.06076 6.02811 8.10631C6.00924 8.15187 5.99953 8.20069 5.99953 8.25C5.99953 8.29931 6.00924 8.34813 6.02811 8.39369C6.04698 8.43924 6.07463 8.48063 6.1095 8.5155C6.14437 8.55037 6.18576 8.57802 6.23131 8.59689C6.27687 8.61576 6.32569 8.62547 6.375 8.62547C6.42431 8.62547 6.47313 8.61576 6.51869 8.59689C6.56424 8.57802 6.60563 8.55037 6.6405 8.5155L8.8905 6.2655C8.92542 6.23067 8.95313 6.18928 8.97203 6.14372C8.99094 6.09817 9.00067 6.04933 9.00067 6C9.00067 5.95067 8.99094 5.90183 8.97203 5.85627C8.95313 5.81072 8.92542 5.76933 8.8905 5.7345L6.6405 3.4845C6.60563 3.44963 6.56424 3.42198 6.51869 3.40311C6.47313 3.38424 6.42431 3.37453 6.375 3.37453C6.32569 3.37453 6.27687 3.38424 6.23131 3.40311C6.18576 3.42198 6.14437 3.44963 6.1095 3.4845C6.07463 3.51937 6.04698 3.56076 6.02811 3.60631C6.00924 3.65187 5.99953 3.70069 5.99953 3.75C5.99953 3.79931 6.00924 3.84813 6.02811 3.89369C6.04698 3.93924 6.07463 3.98063 6.1095 4.0155L7.71975 5.625H3.375Z" fill="url(#paint0_linear_577_104)"/>
<defs>
<linearGradient id="paint0_linear_577_104" x1="6" y1="0" x2="6" y2="12" gradientUnits="userSpaceOnUse">
<stop stop-color="#D5E1EC"/>
<stop offset="0.336458" stop-color="#F4F6F9"/>
</linearGradient>
</defs>
</svg>
