<svg width="100" height="100" viewBox="0 0 100 100" fill="none" xmlns="http://www.w3.org/2000/svg">
<path d="M56.25 31.25H62.5V37.5H56.25V31.25Z" fill="#8BD5FF"/>
<path d="M37.5 31.25H43.75V37.5H37.5V31.25Z" fill="#8BD5FF"/>
<path d="M81.25 62.5H65.625V56.25H68.75C70.4071 56.2483 71.9958 55.5893 73.1676 54.4176C74.3393 53.2458 74.9983 51.6571 75 50V37.5H81.25V31.25H75V25C74.9983 23.3429 74.3393 21.7542 73.1676 20.5824C71.9958 19.4107 70.4071 18.7517 68.75 18.75H62.5V6.25H56.25V18.75H43.75V6.25H37.5V18.75H31.25C29.5929 18.7517 28.0042 19.4107 26.8324 20.5824C25.6607 21.7542 25.0017 23.3429 25 25V31.25H18.75V37.5H25V50C25.0017 51.6571 25.6607 53.2458 26.8324 54.4176C28.0042 55.5893 29.5929 56.2483 31.25 56.25H34.375V62.5H18.75C17.0929 62.5017 15.5042 63.1607 14.3324 64.3324C13.1607 65.5042 12.5017 67.0929 12.5 68.75V93.75H18.75V68.75H81.25V93.75H87.5V68.75C87.4983 67.0929 86.8393 65.5042 85.6676 64.3324C84.4958 63.1607 82.9071 62.5017 81.25 62.5ZM31.25 25H68.75V50H31.25V25ZM40.625 56.25H59.375V62.5H40.625V56.25Z" fill="#8BD5FF"/>
</svg>
