<svg width="23" height="23" viewBox="0 0 23 23" fill="none" xmlns="http://www.w3.org/2000/svg">
<path fill-rule="evenodd" clip-rule="evenodd" d="M0.256035 1.226C0.255875 1.09859 0.280851 0.972404 0.329534 0.854662C0.378218 0.73692 0.449651 0.629939 0.539743 0.539846C0.629836 0.449754 0.736817 0.378321 0.854559 0.329637C0.972301 0.280954 1.09849 0.255978 1.2259 0.256138L6.70537 0.256138C6.83273 0.256139 6.95885 0.281224 7.07652 0.329966C7.19419 0.378706 7.3011 0.450146 7.39116 0.540207C7.48122 0.630267 7.55266 0.737183 7.6014 0.854853C7.65015 0.972521 7.67523 1.09864 7.67523 1.226C7.67523 1.35337 7.65014 1.47949 7.6014 1.59716C7.55266 1.71482 7.48123 1.82174 7.39116 1.9118C7.3011 2.00186 7.19419 2.0733 7.07652 2.12204C6.95885 2.17078 6.83273 2.19587 6.70537 2.19587L3.56426 2.1945L8.76016 7.3904C8.94182 7.57206 9.04387 7.81843 9.04387 8.07533C9.04387 8.33223 8.94182 8.57861 8.76016 8.76027C8.57851 8.94192 8.33213 9.04398 8.07523 9.04398C7.81833 9.04398 7.57195 8.94192 7.3903 8.76027L2.1944 3.56437L2.19577 6.70547C2.19577 6.96269 2.09358 7.20938 1.9117 7.39127C1.72981 7.57315 1.48313 7.67533 1.2259 7.67533C0.968677 7.67533 0.721988 7.57315 0.540103 7.39127C0.358218 7.20938 0.256035 6.96269 0.256036 6.70547L0.256035 1.226ZM14.2396 14.2397C14.4213 14.0581 14.6677 13.956 14.9246 13.956C15.1815 13.956 15.4278 14.0581 15.6095 14.2397L20.8054 19.4356L20.804 16.2945C20.804 16.0373 20.9062 15.7906 21.0881 15.6087C21.27 15.4268 21.5167 15.3247 21.7739 15.3247C22.0311 15.3247 22.2778 15.4268 22.4597 15.6087C22.6416 15.7906 22.7438 16.0373 22.7438 16.2945V21.774C22.7439 21.9014 22.7189 22.0276 22.6703 22.1453C22.6216 22.2631 22.5501 22.3701 22.4601 22.4602C22.37 22.5502 22.263 22.6217 22.1452 22.6704C22.0275 22.719 21.9013 22.744 21.7739 22.7439L16.2944 22.7439C16.1671 22.7439 16.0409 22.7188 15.9233 22.67C15.8056 22.6213 15.6987 22.5499 15.6086 22.4598C15.5186 22.3697 15.4471 22.2628 15.3984 22.1451C15.3496 22.0275 15.3246 21.9014 15.3246 21.774C15.3246 21.5168 15.4267 21.2701 15.6086 21.0882C15.6987 20.9981 15.8056 20.9267 15.9233 20.878C16.0409 20.8292 16.1671 20.8041 16.2944 20.8041L19.4355 20.8055L14.2396 15.6096C14.058 15.4279 13.9559 15.1816 13.9559 14.9247C13.9559 14.6678 14.058 14.4214 14.2396 14.2397ZM1.2259 22.7439C1.09849 22.744 0.972301 22.719 0.854559 22.6704C0.736817 22.6217 0.629836 22.5502 0.539743 22.4602C0.449651 22.3701 0.378218 22.2631 0.329534 22.1453C0.280851 22.0276 0.255875 21.9014 0.256035 21.774L0.256036 16.2945C0.256035 16.0373 0.358218 15.7906 0.540103 15.6087C0.721988 15.4268 0.968677 15.3247 1.2259 15.3247C1.48313 15.3247 1.72981 15.4268 1.9117 15.6087C2.09358 15.7906 2.19577 16.0373 2.19577 16.2945L2.1944 19.4356L7.3903 14.2397C7.57195 14.0581 7.81833 13.956 8.07523 13.956C8.33213 13.956 8.57851 14.0581 8.76016 14.2397C8.94182 14.4214 9.04387 14.6678 9.04387 14.9247C9.04387 15.1816 8.94182 15.4279 8.76016 15.6096L3.56426 20.8055L6.70537 20.8041C6.96259 20.8041 7.20928 20.9063 7.39116 21.0882C7.57305 21.2701 7.67523 21.5168 7.67523 21.774C7.67523 22.0312 7.57305 22.2779 7.39116 22.4598C7.20928 22.6417 6.96259 22.7439 6.70537 22.7439L1.2259 22.7439ZM14.2396 8.76027C14.058 8.57861 13.9559 8.33223 13.9559 8.07533C13.9559 7.81844 14.058 7.57206 14.2396 7.3904L19.4355 2.1945L16.2944 2.19587C16.1671 2.19587 16.0409 2.17078 15.9233 2.12204C15.8056 2.0733 15.6987 2.00186 15.6086 1.9118C15.5186 1.82174 15.4471 1.71482 15.3984 1.59716C15.3496 1.47949 15.3246 1.35337 15.3246 1.226C15.3246 0.968779 15.4267 0.72209 15.6086 0.540205C15.6987 0.450145 15.8056 0.378705 15.9233 0.329964C16.0409 0.281223 16.1671 0.256138 16.2944 0.256139L21.7739 0.256138C21.9013 0.255978 22.0275 0.280954 22.1452 0.329637C22.263 0.37832 22.37 0.449751 22.4601 0.539844C22.5501 0.629936 22.6216 0.736919 22.6703 0.854661C22.7189 0.972403 22.7439 1.09859 22.7438 1.226V6.70547C22.7438 6.83283 22.7187 6.95895 22.6699 7.07662C22.6212 7.19429 22.5498 7.30121 22.4597 7.39126C22.3696 7.48133 22.2627 7.55277 22.145 7.60151C22.0274 7.65025 21.9013 7.67533 21.7739 7.67533C21.6465 7.67533 21.5204 7.65025 21.4027 7.60151C21.2851 7.55277 21.1782 7.48133 21.0881 7.39127C20.998 7.30121 20.9266 7.19429 20.8779 7.07662C20.8291 6.95895 20.804 6.83283 20.804 6.70547L20.8054 3.56436L15.6095 8.76027C15.4278 8.94192 15.1815 9.04398 14.9246 9.04398C14.6677 9.04398 14.4213 8.94192 14.2396 8.76027Z" fill="#E7EDF2"/>
</svg>
