<svg width="801" height="801" viewBox="0 0 801 801" fill="none" xmlns="http://www.w3.org/2000/svg">
<rect x="149.477" y="150.382" width="458.455" height="458.455" stroke="#FF00D6" stroke-width="10"/>
<mask id="path-2-inside-1_1_29" fill="white">
<path d="M328.356 516.425C295.885 516.425 264.143 506.796 237.144 488.756C210.145 470.716 189.102 445.074 176.675 415.075C164.249 385.075 160.998 352.064 167.333 320.217C173.668 288.37 189.304 259.116 212.265 236.155C235.225 213.194 264.479 197.558 296.327 191.223C328.174 184.888 361.185 188.14 391.184 200.566C421.184 212.992 446.825 234.035 464.865 261.034C482.905 288.033 492.534 319.775 492.534 352.247L328.356 352.247V516.425Z"/>
</mask>
<path d="M328.356 516.425C295.885 516.425 264.143 506.796 237.144 488.756C210.145 470.716 189.102 445.074 176.675 415.075C164.249 385.075 160.998 352.064 167.333 320.217C173.668 288.37 189.304 259.116 212.265 236.155C235.225 213.194 264.479 197.558 296.327 191.223C328.174 184.888 361.185 188.14 391.184 200.566C421.184 212.992 446.825 234.035 464.865 261.034C482.905 288.033 492.534 319.775 492.534 352.247L328.356 352.247V516.425Z" stroke="#A8C0FF" stroke-width="4" mask="url(#path-2-inside-1_1_29)"/>
<rect x="328.356" y="352.247" width="328.356" height="328.356" stroke="#A8C0FF" stroke-width="2"/>
<g filter="url(#filter0_f_1_29)">
<ellipse cx="617.876" cy="619.31" rx="164.744" ry="164.178" fill="#00A3FF"/>
</g>
<mask id="path-5-inside-2_1_29" fill="white">
<path d="M390.744 229.66C390.744 320.333 317.239 393.838 226.566 393.838C135.893 393.838 62.3877 320.333 62.3877 229.66C62.3877 138.987 135.893 65.4822 226.566 65.4822C317.239 65.4822 390.744 138.987 390.744 229.66ZM144.477 229.66C144.477 274.997 181.229 311.749 226.566 311.749C271.902 311.749 308.655 274.997 308.655 229.66C308.655 184.324 271.902 147.571 226.566 147.571C181.229 147.571 144.477 184.324 144.477 229.66Z"/>
</mask>
<path d="M390.744 229.66C390.744 320.333 317.239 393.838 226.566 393.838C135.893 393.838 62.3877 320.333 62.3877 229.66C62.3877 138.987 135.893 65.4822 226.566 65.4822C317.239 65.4822 390.744 138.987 390.744 229.66ZM144.477 229.66C144.477 274.997 181.229 311.749 226.566 311.749C271.902 311.749 308.655 274.997 308.655 229.66C308.655 184.324 271.902 147.571 226.566 147.571C181.229 147.571 144.477 184.324 144.477 229.66Z" stroke="#4A7DFF" stroke-width="20" mask="url(#path-5-inside-2_1_29)"/>
<line x1="0.707107" y1="1.29289" x2="799.707" y2="800.293" stroke="#87E2FF" stroke-width="2"/>
<defs>
<filter id="filter0_f_1_29" x="449.132" y="451.132" width="337.488" height="336.356" filterUnits="userSpaceOnUse" color-interpolation-filters="sRGB">
<feFlood flood-opacity="0" result="BackgroundImageFix"/>
<feBlend mode="normal" in="SourceGraphic" in2="BackgroundImageFix" result="shape"/>
<feGaussianBlur stdDeviation="2" result="effect1_foregroundBlur_1_29"/>
</filter>
</defs>
</svg>
