<svg width="39" height="24" viewBox="0 0 39 24" fill="none" xmlns="http://www.w3.org/2000/svg">
<path d="M1.78133 1.94062C2.81258 2.48438 17.1376 10.2938 17.672 10.575C18.2063 10.8563 18.7501 10.9875 19.5938 10.9875C20.4376 10.9875 20.9813 10.8563 21.5157 10.575C22.0501 10.2938 36.3751 2.48438 37.4063 1.94062C37.7907 1.74375 38.4376 1.3875 38.5782 0.984375C38.822 0.271875 38.5595 0 37.5188 0H1.66883C0.628207 0 0.365706 0.28125 0.609456 0.984375C0.750081 1.39688 1.39696 1.74375 1.78133 1.94062Z" fill="#F3F5F8"/>
<path d="M38.2219 2.36231C37.4531 2.75606 30.5531 7.66856 25.9875 10.6217L33.6938 19.2936C33.8813 19.4811 33.9656 19.7061 33.8625 19.8186C33.75 19.9217 33.5063 19.8654 33.3094 19.6873L24.0656 11.8873C22.6688 12.7873 21.6844 13.4061 21.5156 13.4998C20.7938 13.8654 20.2875 13.9123 19.5938 13.9123C18.9 13.9123 18.3938 13.8654 17.6719 13.4998C17.4938 13.4061 16.5188 12.7873 15.1219 11.8873L5.87813 19.6873C5.69063 19.8748 5.4375 19.9311 5.325 19.8186C5.2125 19.7154 5.29688 19.4811 5.48438 19.2936L13.1813 10.6217C8.61563 7.66856 1.64062 2.75606 0.871875 2.36231C0.0468749 1.94043 0 2.43731 0 2.82168V22.0404C0 22.9123 1.28438 23.9998 2.20313 23.9998H36.9844C37.9031 23.9998 39 22.9029 39 22.0404V2.82168C39 2.42793 39.0563 1.94043 38.2219 2.36231Z" fill="#F3F5F8"/>
</svg>
