<svg width="39" height="22" viewBox="0 0 39 22" fill="none" xmlns="http://www.w3.org/2000/svg">
<path d="M38.2219 0.362308C37.4531 0.756058 30.5531 5.66856 25.9875 8.62168L33.6938 17.2936C33.8813 17.4811 33.9656 17.7061 33.8625 17.8186C33.75 17.9217 33.5063 17.8654 33.3094 17.6873L24.0656 9.88731C22.6688 10.7873 21.6844 11.4061 21.5156 11.4998C20.7938 11.8654 20.2875 11.9123 19.5938 11.9123C18.9 11.9123 18.3938 11.8654 17.6719 11.4998C17.4938 11.4061 16.5188 10.7873 15.1219 9.88731L5.87813 17.6873C5.69063 17.8748 5.4375 17.9311 5.325 17.8186C5.2125 17.7154 5.29688 17.4811 5.48438 17.2936L13.1813 8.62168C8.61563 5.66856 1.64062 0.756058 0.871875 0.362308C0.0468749 -0.0595669 0 0.437309 0 0.821684V20.0404C0 20.9123 1.28438 21.9998 2.20313 21.9998H36.9844C37.9031 21.9998 39 20.9029 39 20.0404V0.821684C39 0.427934 39.0563 -0.0595669 38.2219 0.362308Z" fill="#F3F5F8"/>
</svg>
