<svg width="1440" height="1024" viewBox="0 0 1440 1024" fill="none" xmlns="http://www.w3.org/2000/svg">
<rect width="1440" height="1024" fill="#232323"/>
<rect x="35" y="24" width="1370" height="856" fill="url(#paint0_linear_164_4798)"/>
<path d="M369.672 220.712C378.403 239.566 370.732 261.647 352.589 270.049C334.446 278.451 312.645 270.019 303.913 251.165C295.182 232.31 302.853 210.23 320.996 201.828C339.139 193.426 360.94 201.858 369.672 220.712Z" stroke="#F7F8FA"/>
<path d="M114.95 542.284C117.718 548.261 116.106 554.647 111.685 556.695C107.263 558.743 101.35 555.842 98.5821 549.865C95.8142 543.888 97.4265 537.502 101.848 535.454C106.27 533.406 112.183 536.308 114.95 542.284Z" stroke="#F7F8FA"/>
<path d="M194.508 851.171C197.744 858.159 195.148 866.159 188.828 869.086C182.509 872.012 174.728 868.818 171.492 861.83C168.256 854.841 170.852 846.841 177.172 843.915C183.491 840.988 191.272 844.183 194.508 851.171Z" stroke="#F7F8FA"/>
<path d="M103.08 771.301C107.08 779.938 103.341 790.17 94.7341 794.156C86.1267 798.142 75.9051 794.375 71.9052 785.738C67.9053 777.101 71.6439 766.869 80.2513 762.883C88.8587 758.896 99.0803 762.664 103.08 771.301Z" stroke="#F7F8FA"/>
<path d="M81.1525 770.776C86.348 781.995 83.389 794.165 74.8788 798.106C66.3685 802.047 55.173 796.432 49.9776 785.213C44.7821 773.994 47.7411 761.824 56.2513 757.883C64.7615 753.941 75.9571 759.557 81.1525 770.776Z" stroke="#F7F8FA"/>
<path d="M96.5328 753.278C100.795 762.481 97.2219 773.136 88.6393 777.111C80.0567 781.086 69.6196 776.918 65.3578 767.715C61.0961 758.513 64.6687 747.857 73.2513 743.883C81.8339 739.908 92.271 744.076 96.5328 753.278Z" stroke="#F7F8FA"/>
<path d="M120.143 501.788C116.128 509.468 106.782 512.49 99.2781 508.567C91.7737 504.644 88.9215 495.245 92.9363 487.565C96.9512 479.885 106.297 476.863 113.801 480.786C121.305 484.709 124.157 494.108 120.143 501.788Z" stroke="#F7F8FA"/>
<path d="M1365.08 487.487C1363.36 498.421 1355.11 505.98 1346.84 504.679C1338.57 503.377 1333.04 493.647 1334.76 482.712C1336.48 471.778 1344.74 464.219 1353 465.521C1361.27 466.822 1366.81 476.552 1365.08 487.487Z" stroke="#F7F8FA"/>
<path d="M221.85 486.649C226.502 496.693 223.845 507.568 216.25 511.085C208.656 514.602 198.644 509.594 193.993 499.55C189.341 489.505 191.998 478.631 199.593 475.114C207.187 471.597 217.199 476.605 221.85 486.649Z" stroke="#F7F8FA"/>
<path d="M223.85 506.649C228.502 516.693 225.845 527.568 218.25 531.085C210.656 534.602 200.644 529.594 195.993 519.55C191.341 509.505 193.998 498.631 201.593 495.114C209.187 491.597 219.199 496.605 223.85 506.649Z" stroke="#F7F8FA"/>
<path d="M77.8503 574.649C82.5018 584.693 79.8446 595.568 72.2505 599.085C64.6563 602.602 54.6443 597.594 49.9928 587.55C45.3412 577.505 47.9984 566.631 55.5926 563.114C63.1867 559.597 73.1987 564.605 77.8503 574.649Z" stroke="#F7F8FA"/>
<path d="M572.85 798.649C577.502 808.693 574.845 819.568 567.25 823.085C559.656 826.602 549.644 821.594 544.993 811.55C540.341 801.505 542.998 790.631 550.593 787.114C558.187 783.597 568.199 788.605 572.85 798.649Z" stroke="#F7F8FA"/>
<path d="M815.85 73.6491C820.502 83.6935 817.845 94.5679 810.25 98.0848C802.656 101.602 792.644 96.5942 787.993 86.5498C783.341 76.5053 785.998 65.6309 793.593 62.114C801.187 58.5972 811.199 63.6046 815.85 73.6491Z" stroke="#F7F8FA"/>
<path d="M1309.23 435.448C1298.24 434.096 1290.41 426.099 1291.43 417.792C1292.45 409.486 1301.99 403.626 1312.98 404.978C1323.96 406.329 1331.8 414.327 1330.78 422.633C1329.75 430.939 1320.22 436.799 1309.23 435.448Z" stroke="#F7F8FA"/>
<path d="M163.164 455.615C169.761 464.503 169.371 475.691 162.651 480.679C155.931 485.666 145.109 482.8 138.512 473.912C131.915 465.023 132.305 453.836 139.025 448.848C145.745 443.86 156.567 446.726 163.164 455.615Z" stroke="#F7F8FA"/>
<path d="M419.996 239.91C429.799 261.08 422.302 285.291 403.397 294.045C384.493 302.8 361.179 292.858 351.376 271.688C341.572 250.518 349.07 226.307 367.974 217.553C386.878 208.798 410.192 218.74 419.996 239.91Z" stroke="#F7F8FA"/>
<path d="M1329.28 320.902C1312.2 344.59 1283.95 352.311 1266.33 339.603C1248.71 326.895 1247.12 297.652 1264.21 273.963C1281.3 250.274 1309.55 242.554 1327.17 255.261C1344.78 267.969 1346.37 297.213 1329.28 320.902Z" stroke="#F7F8FA" stroke-width="4"/>
<path d="M1268.57 466.69C1283.71 492.203 1279.75 522.26 1260.08 533.935C1240.41 545.611 1212.13 534.684 1196.99 509.171C1181.85 483.658 1185.8 453.601 1205.47 441.925C1225.15 430.25 1253.43 441.177 1268.57 466.69Z" stroke="#F7F8FA"/>
<path d="M1353.44 421.345C1343.45 449.119 1317.98 464.914 1296.82 457.304C1275.65 449.694 1266.07 421.294 1276.05 393.52C1286.04 365.746 1311.51 349.951 1332.68 357.561C1353.84 365.171 1363.43 393.571 1353.44 421.345Z" stroke="#F7F8FA" stroke-width="2"/>
<path d="M1088.62 724.996C1077.24 756.653 1043.43 773.401 1013.16 762.516C982.886 751.631 967.482 717.188 978.865 685.532C990.247 653.875 1024.06 637.127 1054.33 648.012C1084.6 658.896 1100.01 693.339 1088.62 724.996Z" stroke="#F7F8FA" stroke-width="2"/>
<path d="M1373.36 346.981C1349.22 380.45 1308.63 392.147 1282.74 373.471C1256.85 354.796 1255.14 312.589 1279.28 279.119C1303.42 245.65 1344.01 233.953 1369.9 252.629C1395.8 271.305 1397.5 313.511 1373.36 346.981Z" stroke="#F7F8FA"/>
<path d="M1036.92 266.399C1047.9 290.112 1041.73 316.07 1023.48 324.524C1005.22 332.978 981.436 320.893 970.454 297.179C959.473 273.466 965.641 247.508 983.897 239.054C1002.15 230.6 1025.94 242.685 1036.92 266.399Z" stroke="#F7F8FA"/>
<path d="M1060.42 301.183C1071.33 324.759 1065.2 350.564 1047.05 358.968C1028.9 367.373 1005.26 355.359 994.338 331.783C983.421 308.208 989.554 282.403 1007.7 273.998C1025.85 265.594 1049.5 277.608 1060.42 301.183Z" stroke="#F7F8FA"/>
<path d="M1123.15 642.148C1106.58 652.078 1084.74 646.177 1074.4 628.912C1064.05 611.647 1069.15 589.613 1085.72 579.683C1102.3 569.753 1124.13 575.653 1134.47 592.918C1144.82 610.183 1139.72 632.218 1123.15 642.148Z" stroke="#F7F8FA"/>
<path d="M544.634 815.494C531.443 823.397 514.239 818.96 506.213 805.564C498.186 792.167 502.39 774.905 515.58 767.002C528.771 759.099 545.975 763.535 554.001 776.932C562.028 790.328 557.824 807.591 544.634 815.494Z" stroke="#F7F8FA"/>
<path d="M1144.96 58.3773C1156.28 57.3602 1166.13 64.9198 1167.05 75.1615C1167.97 85.4032 1159.62 94.5978 1148.31 95.6149C1136.99 96.6319 1127.14 89.0724 1126.22 78.8307C1125.3 68.589 1133.64 59.3944 1144.96 58.3773Z" stroke="#F7F8FA"/>
<path d="M823.174 786.733C849.051 784.408 871.275 798.886 873.065 818.806C874.854 838.725 855.568 856.934 829.691 859.259C803.815 861.584 781.591 847.106 779.801 827.186C778.011 807.267 797.298 789.058 823.174 786.733Z" stroke="#F7F8FA"/>
<path d="M1122.17 439.733C1148.05 437.408 1170.27 451.886 1172.06 471.806C1173.85 491.725 1154.57 509.934 1128.69 512.259C1102.82 514.584 1080.59 500.106 1078.8 480.186C1077.01 460.267 1096.3 442.058 1122.17 439.733Z" stroke="#F7F8FA"/>
<path d="M1053.83 324.644C1026.52 317.854 1008.89 295.157 1014.13 274.117C1019.36 253.078 1045.57 241.282 1072.87 248.072C1100.17 254.862 1117.8 277.56 1112.57 298.599C1107.34 319.639 1081.13 331.434 1053.83 324.644Z" stroke="#F7F8FA"/>
<path d="M999.218 254.591C1000.41 237.739 1014.83 225.052 1031.41 226.221C1047.99 227.391 1060.49 241.977 1059.3 258.828C1058.12 275.68 1043.69 288.367 1027.11 287.198C1010.53 286.028 998.03 271.442 999.218 254.591Z" stroke="#F7F8FA" stroke-width="2"/>
<circle cx="1305.01" cy="776.007" r="58.332" transform="rotate(88.8828 1305.01 776.007)" stroke="#F7F8FA" stroke-width="5"/>
<circle cx="1287.56" cy="758.565" r="43.6828" transform="rotate(88.8828 1287.56 758.565)" stroke="#F7F8FA" stroke-width="4"/>
<circle cx="1274" cy="744.997" r="35.296" transform="rotate(88.8828 1274 744.997)" stroke="#F7F8FA" stroke-width="2"/>
<circle cx="1327" cy="563.997" r="35.296" transform="rotate(88.8828 1327 563.997)" stroke="#F7F8FA" stroke-width="2"/>
<circle cx="1262.58" cy="731.826" r="29.5011" transform="rotate(88.8828 1262.58 731.826)" stroke="#F7F8FA"/>
<circle cx="1252.22" cy="723.041" r="24.4504" transform="rotate(88.8828 1252.22 723.041)" stroke="#F7F8FA" stroke-width="2"/>
<circle cx="1298.94" cy="531.942" r="24.9504" transform="rotate(88.8828 1298.94 531.942)" stroke="#F7F8FA"/>
<circle cx="899.942" cy="147.942" r="24.9504" transform="rotate(88.8828 899.942 147.942)" stroke="#F7F8FA"/>
<circle cx="1147.94" cy="309.942" r="24.9504" transform="rotate(88.8828 1147.94 309.942)" stroke="#F7F8FA"/>
<circle cx="224.708" cy="66.7079" r="23.9504" transform="rotate(-127.794 224.708 66.7079)" stroke="#F7F8FA" stroke-width="3"/>
<circle cx="730.942" cy="207.942" r="24.9504" transform="rotate(88.8828 730.942 207.942)" stroke="#F7F8FA"/>
<circle cx="1243.33" cy="713.331" r="21.408" transform="rotate(88.8828 1243.33 713.331)" stroke="#F7F8FA"/>
<circle cx="431.331" cy="75.331" r="21.408" transform="rotate(88.8828 431.331 75.331)" stroke="#F7F8FA"/>
<circle cx="1111.33" cy="525.331" r="20.408" transform="rotate(88.8828 1111.33 525.331)" stroke="#F7F8FA" stroke-width="3"/>
<circle cx="685.331" cy="79.331" r="20.908" transform="rotate(88.8828 685.331 79.331)" stroke="#F7F8FA" stroke-width="2"/>
<path d="M1346.65 626.279C1343.65 667.437 1315.22 698.684 1283.38 696.361C1251.54 694.038 1227.95 658.996 1230.96 617.838C1233.96 576.679 1262.38 545.433 1294.22 547.756C1326.06 550.079 1349.65 585.12 1346.65 626.279Z" stroke="#F7F8FA"/>
<path d="M1333.35 610.819C1331.22 640.072 1311.1 661.775 1289.07 660.168C1267.05 658.561 1250.29 634.167 1252.42 604.914C1254.56 575.661 1274.68 553.957 1296.7 555.564C1318.73 557.171 1335.49 581.566 1333.35 610.819Z" stroke="#F7F8FA" stroke-width="3"/>
<path d="M345.545 880.762C341.952 904.15 324.302 920.621 306.321 917.859C288.341 915.096 276.449 894.087 280.042 870.699C283.635 847.31 301.285 830.839 319.266 833.602C337.247 836.364 349.138 857.374 345.545 880.762Z" stroke="#F7F8FA"/>
<path d="M309.435 567.321C304.709 598.086 281.476 619.821 257.74 616.174C234.005 612.528 218.368 584.821 223.095 554.056C227.821 523.291 251.054 501.556 274.789 505.202C298.524 508.849 314.162 536.555 309.435 567.321Z" stroke="#F7F8FA"/>
<path d="M395.683 853.516C378.332 828.952 380.251 798.837 398.545 785.915C416.839 772.993 445.864 781.25 463.215 805.814C480.566 830.378 478.646 860.494 460.352 873.416C442.058 886.338 413.034 878.08 395.683 853.516Z" stroke="#F7F8FA" stroke-width="4"/>
<path d="M163.786 91.5436C173.98 120.326 163.987 149.888 141.787 157.751C119.587 165.614 93.2153 148.93 83.0215 120.148C72.8277 91.3659 82.8203 61.8033 105.021 53.9407C127.221 46.078 153.592 62.7615 163.786 91.5436Z" stroke="#F7F8FA"/>
<path d="M649.278 807.176C677.124 778.231 717.163 773.112 738.785 793.914C760.406 814.715 756.839 854.922 728.993 883.866C701.146 912.81 661.108 917.929 639.486 897.128C617.865 876.327 621.432 836.12 649.278 807.176Z" stroke="#F7F8FA" stroke-width="5"/>
<path d="M1166.76 804.827C1165.83 842.046 1132.3 871.598 1091.62 870.574C1050.95 869.551 1018.95 838.351 1019.89 801.132C1020.82 763.913 1054.35 734.362 1095.02 735.385C1135.7 736.408 1167.7 767.608 1166.76 804.827Z" stroke="#F7F8FA" stroke-width="3"/>
<path d="M379.943 604.984C378.917 645.749 352.334 677.925 320.802 677.132C289.27 676.339 264.338 642.866 265.364 602.102C266.389 561.337 292.973 529.16 324.505 529.954C356.037 530.747 380.969 564.219 379.943 604.984Z" stroke="#F7F8FA"/>
<path d="M383.773 723.767C382.256 784.074 331.793 831.736 271.047 830.208C210.3 828.68 162.298 778.54 163.815 718.233C165.333 657.926 215.796 610.264 276.542 611.792C337.288 613.32 385.29 663.46 383.773 723.767Z" stroke="#F7F8FA" stroke-width="2"/>
<path d="M636.939 734.833C665.211 705.447 706.543 699.648 729.274 721.516C752.004 743.384 747.808 784.91 719.536 814.296C691.265 843.683 649.932 849.481 627.202 827.613C604.472 805.745 608.668 764.219 636.939 734.833Z" stroke="#F7F8FA"/>
<path d="M858.443 739.319C879.603 773.997 874.629 815.091 848.032 831.32C821.436 847.549 782.617 833.177 761.457 798.499C740.297 763.82 745.271 722.727 771.867 706.498C798.464 690.269 837.283 704.641 858.443 739.319Z" stroke="#F7F8FA" stroke-width="2"/>
<path d="M908.642 800.684C924.332 826.397 915.607 860.415 889.024 876.635C862.442 892.855 828.2 885.056 812.51 859.342C796.82 833.629 805.546 799.611 832.128 783.391C858.71 767.171 892.952 774.971 908.642 800.684Z" stroke="#F7F8FA" stroke-width="3"/>
<path d="M1274.44 595.972C1273.42 636.583 1246.96 668.416 1215.81 667.632C1184.67 666.849 1159.84 633.726 1160.86 593.114C1161.89 552.503 1188.35 520.67 1219.49 521.454C1250.64 522.237 1275.46 555.36 1274.44 595.972Z" stroke="#F7F8FA" stroke-width="2"/>
<path d="M835.071 164.673C834.569 184.597 819.074 200.253 800.595 199.788C782.117 199.323 767.428 182.908 767.93 162.984C768.431 143.06 783.926 127.405 802.405 127.869C820.883 128.334 835.572 144.75 835.071 164.673Z" stroke="#F7F8FA" stroke-width="2"/>
<path d="M997.128 802.081C1005.41 816.125 1001.24 833.886 987.876 841.769C974.512 849.653 956.949 844.712 948.665 830.667C940.38 816.622 944.552 798.861 957.916 790.978C971.28 783.095 988.843 788.036 997.128 802.081Z" stroke="#F7F8FA"/>
<path d="M1205.13 710.081C1213.41 724.125 1209.24 741.886 1195.88 749.769C1182.51 757.653 1164.95 752.712 1156.66 738.667C1148.38 724.622 1152.55 706.861 1165.92 698.978C1179.28 691.095 1196.84 696.036 1205.13 710.081Z" stroke="#F7F8FA"/>
<path d="M249.836 791.843C257.733 805.23 253.709 822.048 241.114 829.477C228.519 836.907 211.854 832.293 203.957 818.905C196.06 805.517 200.083 788.699 212.678 781.27C225.274 773.841 241.939 778.455 249.836 791.843Z" stroke="#F7F8FA" stroke-width="4"/>
<path d="M240.305 867.983C250.553 880.665 249.023 898.846 236.955 908.598C224.886 918.35 206.79 916.029 196.541 903.347C186.293 890.664 187.823 872.484 199.892 862.732C211.96 852.98 230.056 855.3 240.305 867.983Z" stroke="#F7F8FA"/>
<path d="M171.16 717.788C186.911 718.996 198.628 732.142 197.487 747.019C196.346 761.896 182.763 773.103 167.011 771.895C151.26 770.688 139.544 757.541 140.685 742.664C141.825 727.787 155.409 716.58 171.16 717.788Z" stroke="#F7F8FA" stroke-width="3"/>
<path d="M130.237 634.791C146.495 636.038 158.67 649.625 157.484 665.096C156.298 680.566 142.193 692.139 125.935 690.892C109.677 689.646 97.5014 676.058 98.6876 660.588C99.8738 645.117 113.978 633.544 130.237 634.791Z" stroke="#F7F8FA"/>
<path d="M81.498 725.251C111.148 727.525 133.266 752.285 131.112 780.379C128.958 808.473 103.323 829.572 73.6735 827.299C44.024 825.026 21.9052 800.265 24.0593 772.171C26.2134 744.077 51.8485 722.978 81.498 725.251Z" stroke="#F7F8FA" stroke-width="4"/>
<path d="M184.198 831.29C200.203 832.517 212.149 845.884 210.986 861.058C209.822 876.231 195.978 887.621 179.973 886.394C163.969 885.167 152.023 871.8 153.186 856.626C154.35 841.452 168.194 830.062 184.198 831.29Z" stroke="#F7F8FA" stroke-width="2"/>
<path d="M589.556 141.424C589.055 161.313 572.301 177.059 552.093 176.551C531.885 176.042 515.944 159.473 516.444 139.584C516.944 119.695 533.698 103.949 553.907 104.457C574.115 104.965 590.056 121.534 589.556 141.424Z" stroke="#F7F8FA" stroke-width="3"/>
<path d="M589.101 177.894C588.21 213.296 558.398 241.274 522.5 240.371C486.602 239.468 458.235 210.026 459.126 174.624C460.016 139.223 489.828 111.244 525.726 112.147C561.624 113.051 589.992 142.493 589.101 177.894Z" stroke="#F7F8FA"/>
<path d="M428.601 184.882C427.717 220.001 398.141 247.768 362.513 246.871C326.884 245.975 298.742 216.756 299.626 181.637C300.509 146.518 330.085 118.751 365.714 119.647C401.342 120.544 429.485 149.763 428.601 184.882Z" stroke="#F7F8FA" stroke-width="2"/>
<path d="M641.116 115.797C640.358 145.897 615.073 169.687 584.628 168.921C554.183 168.155 530.127 143.124 530.884 113.024C531.641 82.923 556.926 59.1331 587.371 59.8991C617.816 60.6651 641.873 85.6964 641.116 115.797Z" stroke="#F7F8FA"/>
<path d="M966.101 149.894C965.21 185.296 935.398 213.274 899.5 212.371C863.602 211.468 835.235 182.026 836.126 146.624C837.016 111.223 866.828 83.2443 902.726 84.1475C938.624 85.0507 966.992 114.493 966.101 149.894Z" stroke="#F7F8FA"/>
<path d="M1212.6 311.857C1211.73 346.411 1182.63 373.754 1147.54 372.872C1112.45 371.989 1084.76 343.216 1085.63 308.662C1086.49 274.107 1115.6 246.764 1150.69 247.647C1185.78 248.53 1213.47 277.302 1212.6 311.857Z" stroke="#F7F8FA" stroke-width="4"/>
<path d="M1095.1 338.869C1094.22 373.706 1064.88 401.261 1029.53 400.371C994.167 399.482 966.249 370.486 967.125 335.649C968.002 300.812 997.343 273.258 1032.7 274.147C1068.06 275.037 1095.98 304.032 1095.1 338.869Z" stroke="#F7F8FA" stroke-width="3"/>
<path d="M309.79 302.556C309.404 317.89 297.298 329.98 282.803 329.615C268.307 329.25 256.824 316.568 257.21 301.233C257.596 285.899 269.702 273.809 284.197 274.174C298.693 274.539 310.176 287.221 309.79 302.556Z" stroke="#F7F8FA"/>
<path d="M180.545 558.958C180.302 568.618 172.161 576.283 162.321 576.036C152.48 575.788 144.735 567.723 144.978 558.063C145.221 548.403 153.362 540.737 163.203 540.985C173.043 541.232 180.788 549.298 180.545 558.958Z" stroke="#F7F8FA" stroke-width="3"/>
<path d="M95.5448 341.983C95.2876 352.208 86.6756 360.297 76.2957 360.035C65.9157 359.774 57.7214 351.262 57.9787 341.038C58.2359 330.813 66.8479 322.724 77.2279 322.985C87.6078 323.246 95.8021 331.758 95.5448 341.983Z" stroke="#F7F8FA"/>
<path d="M115.545 253.983C115.288 264.208 106.676 272.297 96.2957 272.035C85.9157 271.774 77.7214 263.262 77.9787 253.038C78.2359 242.813 86.8479 234.724 97.2279 234.985C107.608 235.246 115.802 243.758 115.545 253.983Z" stroke="#F7F8FA"/>
<path d="M105.545 433.983C105.288 444.208 96.6756 452.297 86.2957 452.035C75.9157 451.774 67.7214 443.262 67.9787 433.038C68.2359 422.813 76.8479 414.724 87.2279 414.985C97.6078 415.246 105.802 423.758 105.545 433.983Z" stroke="#F7F8FA"/>
<path d="M860.35 235.881C859.32 276.83 832.664 308.708 801.519 307.924C770.375 307.141 745.356 273.962 746.386 233.014C747.416 192.066 774.072 160.187 805.217 160.971C836.362 161.755 861.38 194.933 860.35 235.881Z" stroke="#F7F8FA" stroke-width="3"/>
<path d="M362.088 833.184C338.367 799.603 340.598 757.765 366.359 739.568C392.12 721.372 432.297 733.254 456.018 766.836C479.739 800.418 477.507 842.256 451.747 860.452C425.986 878.649 385.809 866.766 362.088 833.184Z" stroke="#F7F8FA" stroke-width="2"/>
<path d="M252.06 195.191C268.124 240.548 252.353 287.043 217.474 299.396C182.596 311.749 141.076 285.544 125.012 240.187C108.948 194.83 124.719 148.335 159.598 135.982C194.477 123.629 235.996 149.834 252.06 195.191Z" stroke="#F7F8FA" stroke-width="2"/>
<path d="M1329.44 390.055C1328.24 438.004 1297.01 475.447 1260.41 474.526C1223.8 473.605 1194.5 434.639 1195.7 386.69C1196.91 338.741 1228.14 301.299 1264.74 302.22C1301.35 303.141 1330.65 342.106 1329.44 390.055Z" stroke="#F7F8FA" stroke-width="3"/>
<path d="M1049.57 109.275C1048.57 148.981 1014.4 180.419 973.146 179.382C931.891 178.344 899.349 145.227 900.348 105.521C901.347 65.8146 935.513 34.3764 976.768 35.4144C1018.02 36.4524 1050.56 69.5689 1049.57 109.275Z" stroke="#F7F8FA" stroke-width="3"/>
<mask id="path-87-inside-1_164_4798" fill="white">
<path d="M236.224 181.291C253.196 188.807 272.652 189.738 290.31 183.88C307.968 178.022 322.383 165.856 330.383 150.057C338.383 134.258 339.313 116.121 332.968 99.6352C326.624 83.1497 313.524 69.6663 296.552 62.1513L281.59 91.6986C290.144 95.4861 296.746 102.282 299.944 110.59C303.141 118.899 302.673 128.04 298.641 136.002C294.609 143.965 287.344 150.097 278.444 153.049C269.545 156.001 259.739 155.532 251.185 151.744L236.224 181.291Z"/>
</mask>
<path d="M236.224 181.291C253.196 188.807 272.652 189.738 290.31 183.88C307.968 178.022 322.383 165.856 330.383 150.057C338.383 134.258 339.313 116.121 332.968 99.6352C326.624 83.1497 313.524 69.6663 296.552 62.1513L281.59 91.6986C290.144 95.4861 296.746 102.282 299.944 110.59C303.141 118.899 302.673 128.04 298.641 136.002C294.609 143.965 287.344 150.097 278.444 153.049C269.545 156.001 259.739 155.532 251.185 151.744L236.224 181.291Z" stroke="#F7F8FA" stroke-width="6" mask="url(#path-87-inside-1_164_4798)"/>
<mask id="path-88-inside-2_164_4798" fill="white">
<path d="M722.868 171.12C736.681 164.632 747.653 153.207 753.915 138.792C760.177 124.377 761.342 107.865 757.211 92.0687C753.079 76.2722 743.908 62.1689 731.258 52.1618C718.609 42.1547 703.265 36.863 687.84 37.1883C672.416 37.5135 657.865 43.4357 646.668 53.9457C635.47 64.4557 628.319 78.9033 626.431 94.8267C624.544 110.75 628.039 127.164 636.319 141.272C644.599 155.38 657.153 166.309 671.841 172.196L682.23 139.9C674.827 136.933 668.5 131.424 664.327 124.314C660.154 117.204 658.393 108.931 659.344 100.906C660.295 92.8809 663.899 85.5995 669.543 80.3025C675.186 75.0056 682.52 72.0209 690.293 71.8569C698.067 71.693 705.801 74.36 712.176 79.4035C718.551 84.4469 723.173 91.5549 725.255 99.5162C727.337 107.477 726.751 115.8 723.594 123.064C720.438 130.329 714.909 136.087 707.947 139.358L722.868 171.12Z"/>
</mask>
<path d="M722.868 171.12C736.681 164.632 747.653 153.207 753.915 138.792C760.177 124.377 761.342 107.865 757.211 92.0687C753.079 76.2722 743.908 62.1689 731.258 52.1618C718.609 42.1547 703.265 36.863 687.84 37.1883C672.416 37.5135 657.865 43.4357 646.668 53.9457C635.47 64.4557 628.319 78.9033 626.431 94.8267C624.544 110.75 628.039 127.164 636.319 141.272C644.599 155.38 657.153 166.309 671.841 172.196L682.23 139.9C674.827 136.933 668.5 131.424 664.327 124.314C660.154 117.204 658.393 108.931 659.344 100.906C660.295 92.8809 663.899 85.5995 669.543 80.3025C675.186 75.0056 682.52 72.0209 690.293 71.8569C698.067 71.693 705.801 74.36 712.176 79.4035C718.551 84.4469 723.173 91.5549 725.255 99.5162C727.337 107.477 726.751 115.8 723.594 123.064C720.438 130.329 714.909 136.087 707.947 139.358L722.868 171.12Z" stroke="#F7F8FA" stroke-width="2" mask="url(#path-88-inside-2_164_4798)"/>
<mask id="path-89-inside-3_164_4798" fill="white">
<path d="M647.026 304.4C656.012 300.179 663.229 292.913 667.446 283.841C671.664 274.769 672.621 264.452 670.156 254.648C667.69 244.844 661.954 236.16 653.925 230.075C645.895 223.99 636.069 220.88 626.121 221.277C616.173 221.673 606.718 225.55 599.367 232.247C592.016 238.945 587.225 248.049 585.809 258.007C584.393 267.966 586.44 278.163 591.602 286.861C596.763 295.56 604.719 302.221 614.115 305.711L621.217 285.43C616.482 283.672 612.472 280.314 609.871 275.93C607.269 271.546 606.237 266.407 606.951 261.388C607.665 256.369 610.08 251.781 613.784 248.405C617.489 245.03 622.254 243.076 627.268 242.876C632.282 242.676 637.234 244.244 641.281 247.31C645.328 250.377 648.219 254.754 649.461 259.695C650.704 264.636 650.221 269.836 648.096 274.408C645.97 278.98 642.333 282.642 637.804 284.77L647.026 304.4Z"/>
</mask>
<path d="M647.026 304.4C656.012 300.179 663.229 292.913 667.446 283.841C671.664 274.769 672.621 264.452 670.156 254.648C667.69 244.844 661.954 236.16 653.925 230.075C645.895 223.99 636.069 220.88 626.121 221.277C616.173 221.673 606.718 225.55 599.367 232.247C592.016 238.945 587.225 248.049 585.809 258.007C584.393 267.966 586.44 278.163 591.602 286.861C596.763 295.56 604.719 302.221 614.115 305.711L621.217 285.43C616.482 283.672 612.472 280.314 609.871 275.93C607.269 271.546 606.237 266.407 606.951 261.388C607.665 256.369 610.08 251.781 613.784 248.405C617.489 245.03 622.254 243.076 627.268 242.876C632.282 242.676 637.234 244.244 641.281 247.31C645.328 250.377 648.219 254.754 649.461 259.695C650.704 264.636 650.221 269.836 648.096 274.408C645.97 278.98 642.333 282.642 637.804 284.77L647.026 304.4Z" stroke="#F7F8FA" stroke-width="4" mask="url(#path-89-inside-3_164_4798)"/>
<mask id="path-90-inside-4_164_4798" fill="white">
<path d="M1120.55 255.098C1134.39 246.678 1145.43 234.288 1152.28 219.495C1159.14 204.702 1161.5 188.17 1159.07 171.989C1156.64 155.809 1149.52 140.706 1138.63 128.592C1127.73 116.478 1113.53 107.896 1097.84 103.932C1082.15 99.967 1065.66 100.798 1050.47 106.319C1035.27 111.841 1022.05 121.805 1012.47 134.951C1002.89 148.097 997.386 163.835 996.654 180.175C995.921 196.515 999.992 212.723 1008.35 226.75L1043.04 205.635C1038.83 198.565 1036.77 190.397 1037.14 182.162C1037.51 173.926 1040.29 165.994 1045.11 159.369C1049.94 152.743 1056.61 147.721 1064.27 144.939C1071.92 142.156 1080.23 141.737 1088.14 143.735C1096.05 145.733 1103.2 150.059 1108.7 156.164C1114.19 162.269 1117.77 169.881 1119 178.036C1120.22 186.191 1119.03 194.523 1115.58 201.978C1112.12 209.434 1106.56 215.678 1099.59 219.922L1120.55 255.098Z"/>
</mask>
<path d="M1120.55 255.098C1134.39 246.678 1145.43 234.288 1152.28 219.495C1159.14 204.702 1161.5 188.17 1159.07 171.989C1156.64 155.809 1149.52 140.706 1138.63 128.592C1127.73 116.478 1113.53 107.896 1097.84 103.932C1082.15 99.967 1065.66 100.798 1050.47 106.319C1035.27 111.841 1022.05 121.805 1012.47 134.951C1002.89 148.097 997.386 163.835 996.654 180.175C995.921 196.515 999.992 212.723 1008.35 226.75L1043.04 205.635C1038.83 198.565 1036.77 190.397 1037.14 182.162C1037.51 173.926 1040.29 165.994 1045.11 159.369C1049.94 152.743 1056.61 147.721 1064.27 144.939C1071.92 142.156 1080.23 141.737 1088.14 143.735C1096.05 145.733 1103.2 150.059 1108.7 156.164C1114.19 162.269 1117.77 169.881 1119 178.036C1120.22 186.191 1119.03 194.523 1115.58 201.978C1112.12 209.434 1106.56 215.678 1099.59 219.922L1120.55 255.098Z" stroke="#F7F8FA" stroke-width="4" mask="url(#path-90-inside-4_164_4798)"/>
<mask id="path-91-inside-5_164_4798" fill="white">
<path d="M333.868 460.12C300.895 475.61 260.697 459.497 244.083 424.13C227.469 388.764 240.73 347.537 273.703 332.047C306.676 316.557 346.875 332.67 363.489 368.037C380.103 403.403 366.842 444.631 333.868 460.12ZM280.213 345.904C254.375 358.042 243.983 390.348 257.002 418.061C270.021 445.775 301.521 458.401 327.359 446.263C353.197 434.125 363.589 401.819 350.57 374.106C337.551 346.392 306.051 333.766 280.213 345.904Z"/>
</mask>
<path d="M333.868 460.12C300.895 475.61 260.697 459.497 244.083 424.13C227.469 388.764 240.73 347.537 273.703 332.047C306.676 316.557 346.875 332.67 363.489 368.037C380.103 403.403 366.842 444.631 333.868 460.12ZM280.213 345.904C254.375 358.042 243.983 390.348 257.002 418.061C270.021 445.775 301.521 458.401 327.359 446.263C353.197 434.125 363.589 401.819 350.57 374.106C337.551 346.392 306.051 333.766 280.213 345.904Z" stroke="#F7F8FA" stroke-width="2" mask="url(#path-91-inside-5_164_4798)"/>
<mask id="path-92-inside-6_164_4798" fill="white">
<path d="M303.868 531.12C270.895 546.61 230.697 530.497 214.083 495.13C197.469 459.764 210.73 418.537 243.703 403.047C276.676 387.557 316.875 403.67 333.489 439.037C350.103 474.403 336.842 515.631 303.868 531.12ZM250.213 416.904C224.375 429.042 213.983 461.348 227.002 489.061C240.021 516.775 271.521 529.401 297.359 517.263C323.197 505.125 333.589 472.819 320.57 445.106C307.551 417.392 276.051 404.766 250.213 416.904Z"/>
</mask>
<path d="M303.868 531.12C270.895 546.61 230.697 530.497 214.083 495.13C197.469 459.764 210.73 418.537 243.703 403.047C276.676 387.557 316.875 403.67 333.489 439.037C350.103 474.403 336.842 515.631 303.868 531.12ZM250.213 416.904C224.375 429.042 213.983 461.348 227.002 489.061C240.021 516.775 271.521 529.401 297.359 517.263C323.197 505.125 333.589 472.819 320.57 445.106C307.551 417.392 276.051 404.766 250.213 416.904Z" stroke="#F7F8FA" stroke-width="6" mask="url(#path-92-inside-6_164_4798)"/>
<mask id="path-93-inside-7_164_4798" fill="white">
<path d="M105.279 694.074C77.27 707.232 43.9167 695.233 30.7822 667.273C17.6477 639.314 29.7059 605.982 57.7149 592.824C85.7239 579.667 119.077 591.665 132.212 619.625C145.346 647.584 133.288 680.916 105.279 694.074ZM62.8611 603.779C40.913 614.09 31.464 640.209 41.7563 662.118C52.0486 684.027 78.1847 693.43 100.133 683.119C122.081 672.809 131.53 646.689 121.238 624.78C110.945 602.871 84.8092 593.468 62.8611 603.779Z"/>
</mask>
<path d="M105.279 694.074C77.27 707.232 43.9167 695.233 30.7822 667.273C17.6477 639.314 29.7059 605.982 57.7149 592.824C85.7239 579.667 119.077 591.665 132.212 619.625C145.346 647.584 133.288 680.916 105.279 694.074ZM62.8611 603.779C40.913 614.09 31.464 640.209 41.7563 662.118C52.0486 684.027 78.1847 693.43 100.133 683.119C122.081 672.809 131.53 646.689 121.238 624.78C110.945 602.871 84.8092 593.468 62.8611 603.779Z" stroke="#F7F8FA" stroke-width="6" mask="url(#path-93-inside-7_164_4798)"/>
<mask id="path-94-inside-8_164_4798" fill="white">
<path d="M176.829 396.766C158.687 405.288 136.374 396.004 126.99 376.03C117.607 356.055 124.707 332.954 142.849 324.431C160.99 315.909 183.304 325.193 192.688 345.167C202.071 365.142 194.971 388.243 176.829 396.766ZM146.525 332.258C132.309 338.936 126.745 357.038 134.098 372.691C141.451 388.343 158.937 395.618 173.153 388.939C187.369 382.261 192.932 364.159 185.579 348.506C178.226 332.854 160.741 325.579 146.525 332.258Z"/>
</mask>
<path d="M176.829 396.766C158.687 405.288 136.374 396.004 126.99 376.03C117.607 356.055 124.707 332.954 142.849 324.431C160.99 315.909 183.304 325.193 192.688 345.167C202.071 365.142 194.971 388.243 176.829 396.766ZM146.525 332.258C132.309 338.936 126.745 357.038 134.098 372.691C141.451 388.343 158.937 395.618 173.153 388.939C187.369 382.261 192.932 364.159 185.579 348.506C178.226 332.854 160.741 325.579 146.525 332.258Z" stroke="#F7F8FA" stroke-width="4" mask="url(#path-94-inside-8_164_4798)"/>
<mask id="path-95-inside-9_164_4798" fill="white">
<path d="M1369.18 61.2486C1365.95 56.3326 1361.16 52.6553 1355.64 50.8433C1350.12 49.0312 1344.2 49.1965 1338.89 51.311C1333.59 53.4255 1329.22 57.3583 1326.54 62.4393C1323.86 67.5204 1323.03 73.4353 1324.19 79.1763C1325.35 84.9172 1328.43 90.129 1332.91 93.9236C1337.39 97.7182 1342.98 99.8608 1348.74 99.9863C1354.5 100.112 1360.07 98.2126 1364.49 94.6121C1368.92 91.0116 1371.93 85.9327 1373.02 80.2407L1360.89 77.5389C1360.35 80.4076 1358.83 82.9674 1356.6 84.782C1354.37 86.5966 1351.56 87.5538 1348.66 87.4906C1345.75 87.4273 1342.94 86.3474 1340.68 84.435C1338.42 82.5226 1336.87 79.8959 1336.28 77.0025C1335.7 74.1091 1336.12 71.128 1337.47 68.5672C1338.82 66.0064 1341.02 64.0243 1343.69 62.9586C1346.37 61.8929 1349.35 61.8096 1352.13 62.7229C1354.92 63.6361 1357.33 65.4895 1358.96 67.967L1369.18 61.2486Z"/>
</mask>
<path d="M1369.18 61.2486C1365.95 56.3326 1361.16 52.6553 1355.64 50.8433C1350.12 49.0312 1344.2 49.1965 1338.89 51.311C1333.59 53.4255 1329.22 57.3583 1326.54 62.4393C1323.86 67.5204 1323.03 73.4353 1324.19 79.1763C1325.35 84.9172 1328.43 90.129 1332.91 93.9236C1337.39 97.7182 1342.98 99.8608 1348.74 99.9863C1354.5 100.112 1360.07 98.2126 1364.49 94.6121C1368.92 91.0116 1371.93 85.9327 1373.02 80.2407L1360.89 77.5389C1360.35 80.4076 1358.83 82.9674 1356.6 84.782C1354.37 86.5966 1351.56 87.5538 1348.66 87.4906C1345.75 87.4273 1342.94 86.3474 1340.68 84.435C1338.42 82.5226 1336.87 79.8959 1336.28 77.0025C1335.7 74.1091 1336.12 71.128 1337.47 68.5672C1338.82 66.0064 1341.02 64.0243 1343.69 62.9586C1346.37 61.8929 1349.35 61.8096 1352.13 62.7229C1354.92 63.6361 1357.33 65.4895 1358.96 67.967L1369.18 61.2486Z" stroke="#F7F8FA" stroke-width="2" mask="url(#path-95-inside-9_164_4798)"/>
<path d="M1336.62 145.749C1344.66 186.07 1325.62 223.396 1294.69 229.561C1263.76 235.726 1231.87 208.549 1223.84 168.227C1215.8 127.906 1234.83 90.5804 1265.76 84.4156C1296.69 78.2507 1328.58 105.427 1336.62 145.749Z" stroke="#F7F8FA" stroke-width="2"/>
<path d="M1291.77 130.671C1298.02 162.006 1283.17 190.471 1259.76 195.135C1236.36 199.799 1211.73 179.204 1205.49 147.869C1199.24 116.534 1214.09 88.0699 1237.5 83.4057C1260.9 78.7416 1285.53 99.3367 1291.77 130.671Z" stroke="#F7F8FA" stroke-width="4"/>
<defs>
<linearGradient id="paint0_linear_164_4798" x1="720" y1="24" x2="720" y2="880" gradientUnits="userSpaceOnUse">
<stop stop-color="#0A0B0F"/>
<stop offset="1" stop-color="#232323"/>
</linearGradient>
</defs>
</svg>
