<svg width="275" height="275" viewBox="0 0 275 275" fill="none" xmlns="http://www.w3.org/2000/svg">
<mask id="path-1-inside-1_164_4680" fill="white">
<path d="M274.113 137.237C274.113 213.005 212.766 274.427 137.091 274.427C61.4154 274.427 0.0683594 213.005 0.0683594 137.237C0.0683594 61.469 61.4154 0.046875 137.091 0.046875C212.766 0.046875 274.113 61.469 274.113 137.237ZM68.5795 137.237C68.5795 175.121 99.253 205.832 137.091 205.832C174.928 205.832 205.602 175.121 205.602 137.237C205.602 99.3529 174.928 68.6419 137.091 68.6419C99.253 68.6419 68.5795 99.3529 68.5795 137.237Z"/>
</mask>
<path d="M274.113 137.237C274.113 213.005 212.766 274.427 137.091 274.427C61.4154 274.427 0.0683594 213.005 0.0683594 137.237C0.0683594 61.469 61.4154 0.046875 137.091 0.046875C212.766 0.046875 274.113 61.469 274.113 137.237ZM68.5795 137.237C68.5795 175.121 99.253 205.832 137.091 205.832C174.928 205.832 205.602 175.121 205.602 137.237C205.602 99.3529 174.928 68.6419 137.091 68.6419C99.253 68.6419 68.5795 99.3529 68.5795 137.237Z" stroke="url(#paint0_linear_164_4680)" stroke-width="20" mask="url(#path-1-inside-1_164_4680)"/>
<defs>
<linearGradient id="paint0_linear_164_4680" x1="245.953" y1="246.407" x2="26.0226" y2="24.5704" gradientUnits="userSpaceOnUse">
<stop stop-color="#3CB9FF"/>
<stop offset="0.498647" stop-color="#99DAFF" stop-opacity="0.7"/>
<stop offset="1" stop-color="#C7D0FF" stop-opacity="0"/>
</linearGradient>
</defs>
</svg>
