<svg width="275" height="275" viewBox="0 0 275 275" fill="none" xmlns="http://www.w3.org/2000/svg">
<mask id="path-1-inside-1_164_4678" fill="white">
<path d="M137.044 274.862C109.944 274.862 83.452 266.816 60.9188 251.741C38.3856 236.667 20.8231 215.241 10.4522 190.172C0.0812783 165.104 -2.63222 137.52 2.65482 110.908C7.94186 84.2953 20.992 59.8504 40.1549 40.664C59.3178 21.4777 83.7329 8.41158 110.313 3.11807C136.892 -2.17543 164.443 0.541394 189.481 10.925C214.518 21.3086 235.918 38.8926 250.974 61.4534C266.03 84.0142 274.067 110.538 274.067 137.672L137.044 137.672V274.862Z"/>
</mask>
<path d="M137.044 274.862C109.944 274.862 83.452 266.816 60.9188 251.741C38.3856 236.667 20.8231 215.241 10.4522 190.172C0.0812783 165.104 -2.63222 137.52 2.65482 110.908C7.94186 84.2953 20.992 59.8504 40.1549 40.664C59.3178 21.4777 83.7329 8.41158 110.313 3.11807C136.892 -2.17543 164.443 0.541394 189.481 10.925C214.518 21.3086 235.918 38.8926 250.974 61.4534C266.03 84.0142 274.067 110.538 274.067 137.672L137.044 137.672V274.862Z" stroke="url(#paint0_linear_164_4678)" stroke-width="4" mask="url(#path-1-inside-1_164_4678)"/>
<defs>
<linearGradient id="paint0_linear_164_4678" x1="117.5" y1="106" x2="248.129" y2="214.345" gradientUnits="userSpaceOnUse">
<stop stop-color="#D6E1FF"/>
<stop offset="1" stop-color="#D6E1FF" stop-opacity="0"/>
</linearGradient>
</defs>
</svg>
